<?xml version="1.0" encoding="UTF-8" standalone="no"?>
<!-- Created with Inkscape (http://www.inkscape.org/) -->

<svg
   xmlns:dc="http://purl.org/dc/elements/1.1/"
   xmlns:cc="http://creativecommons.org/ns#"
   xmlns:rdf="http://www.w3.org/1999/02/22-rdf-syntax-ns#"
   xmlns:svg="http://www.w3.org/2000/svg"
   xmlns="http://www.w3.org/2000/svg"
   xmlns:sodipodi="http://sodipodi.sourceforge.net/DTD/sodipodi-0.dtd"
   xmlns:inkscape="http://www.inkscape.org/namespaces/inkscape"
   version="1.1"
   id="svg3680"
   xml:space="preserve"
   width="340.36853"
   height="226.6216"
   viewBox="0 0 340.36853 226.6216"
   sodipodi:docname="jspsych-logo-no-text-mono.svg"
   inkscape:version="0.92.1 r15371"
   inkscape:export-filename="C:\Users\Josh\Dropbox\jsPsych\jspsych-logo-no-text.png"
   inkscape:export-xdpi="131.34"
   inkscape:export-ydpi="131.34"><metadata
     id="metadata3686"><rdf:RDF><cc:Work
         rdf:about=""><dc:format>image/svg+xml</dc:format><dc:type
           rdf:resource="http://purl.org/dc/dcmitype/StillImage" /><dc:title></dc:title></cc:Work></rdf:RDF></metadata><defs
     id="defs3684"><clipPath
       clipPathUnits="userSpaceOnUse"
       id="clipPath3700"><path
         d="M 0,271 H 474 V 0 H 0 Z"
         id="path3698"
         inkscape:connector-curvature="0" /></clipPath></defs><sodipodi:namedview
     pagecolor="#ffffff"
     bordercolor="#666666"
     borderopacity="1"
     objecttolerance="10"
     gridtolerance="10"
     guidetolerance="10"
     inkscape:pageopacity="0"
     inkscape:pageshadow="2"
     inkscape:window-width="1920"
     inkscape:window-height="1001"
     id="namedview3682"
     showgrid="false"
     inkscape:zoom="2.2693726"
     inkscape:cx="121.59559"
     inkscape:cy="115.60594"
     inkscape:window-x="2391"
     inkscape:window-y="-9"
     inkscape:window-maximized="1"
     inkscape:current-layer="g3694"
     fit-margin-top="24"
     fit-margin-left="24"
     fit-margin-right="24"
     fit-margin-bottom="24" /><g
     id="g3688"
     inkscape:groupmode="layer"
     inkscape:label="jspsych-logo"
     transform="matrix(1.3333333,0,0,-1.3333333,-156.1236,344.56039)"><g
       id="g3694"><g
         transform="translate(270.4785,165.3169)"
         id="g3702"
         style="fill:#ffffff;fill-opacity:1"><path
           inkscape:connector-curvature="0"
           id="path3704"
           style="fill:#ffffff;fill-opacity:1;fill-rule:nonzero;stroke:none"
           d="m 0,0 c 0,-7.729 -6.267,-13.997 -14,-13.997 -7.732,0 -14.001,6.268 -14.001,13.997 0,7.733 6.269,14.002 14.001,14.002 C -6.267,14.002 0,7.733 0,0" /></g><g
         transform="translate(217.541,123.3291)"
         id="g3706"
         style="fill:#ffffff;fill-opacity:1"><path
           inkscape:connector-curvature="0"
           id="path3708"
           style="fill:#ffffff;fill-opacity:1;fill-rule:nonzero;stroke:none"
           d="m 0,0 c 0,-7.729 -6.267,-13.994 -14,-13.994 -7.732,0 -14.001,6.265 -14.001,13.994 0,7.725 6.269,13.991 14.001,13.991 C -6.267,13.991 0,7.725 0,0" /></g><g
         transform="translate(293.4795,138.3164)"
         id="g3710"
         style="fill:#ffffff;fill-opacity:1"><path
           inkscape:connector-curvature="0"
           id="path3712"
           style="fill:#ffffff;fill-opacity:1;fill-rule:nonzero;stroke:none"
           d="m 0,0 c 0,-7.725 -6.267,-13.982 -14,-13.982 -7.732,0 -14.001,6.257 -14.001,13.982 0,7.734 6.269,14.003 14.001,14.003 C -6.267,14.003 0,7.734 0,0" /></g><g
         transform="translate(262.4873,130.3223)"
         id="g3714"
         style="fill:#ffffff;fill-opacity:1"><path
           inkscape:connector-curvature="0"
           id="path3716"
           style="fill:#ffffff;fill-opacity:1;fill-rule:nonzero;stroke:none"
           d="m 0,0 c 0,-5.85 -4.752,-10.603 -10.614,-10.603 -5.858,0 -10.609,4.753 -10.609,10.603 0,5.859 4.751,10.611 10.609,10.611 C -4.752,10.611 0,5.859 0,0" /></g><g
         transform="translate(303.7871,162.2817)"
         id="g3718"
         style="fill:#ffffff;fill-opacity:1"><path
           inkscape:connector-curvature="0"
           id="path3720"
           style="fill:#ffffff;fill-opacity:1;fill-rule:nonzero;stroke:none"
           d="m 0,0 c 0,-5.859 -4.752,-10.611 -10.614,-10.611 -5.862,0 -10.614,4.752 -10.614,10.611 0,5.863 4.752,10.616 10.614,10.616 C -4.752,10.616 0,5.863 0,0" /></g><g
         transform="translate(212.1562,147.3887)"
         id="g3722"
         style="fill:#ffffff;fill-opacity:1"><path
           inkscape:connector-curvature="0"
           id="path3724"
           style="fill:#ffffff;fill-opacity:1;fill-rule:nonzero;stroke:none"
           d="m 0,0 c 0,-3.496 -2.835,-6.332 -6.333,-6.332 -3.498,0 -6.334,2.836 -6.334,6.332 0,3.499 2.836,6.334 6.334,6.334 C -2.835,6.334 0,3.499 0,0" /></g><g
         transform="translate(240.0127,132.0249)"
         id="g3726"
         style="fill:#ffffff;fill-opacity:1"><path
           inkscape:connector-curvature="0"
           id="path3728"
           style="fill:#ffffff;fill-opacity:1;fill-rule:nonzero;stroke:none"
           d="m 0,0 c 0,-3.489 -2.834,-6.321 -6.332,-6.321 -3.498,0 -6.334,2.832 -6.334,6.321 0,3.497 2.836,6.333 6.334,6.333 C -2.834,6.333 0,3.497 0,0" /></g><g
         transform="translate(306.4268,144.3188)"
         id="g3730"
         style="fill:#ffffff;fill-opacity:1"><path
           inkscape:connector-curvature="0"
           id="path3732"
           style="fill:#ffffff;fill-opacity:1;fill-rule:nonzero;stroke:none"
           d="m 0,0 c 0,-3.496 -2.835,-6.332 -6.333,-6.332 -3.498,0 -6.333,2.836 -6.333,6.332 0,3.499 2.835,6.334 6.333,6.334 C -2.835,6.334 0,3.499 0,0" /></g><g
         transform="translate(228.6377,112.7861)"
         id="g3734"
         style="fill:#ffffff;fill-opacity:1"><path
           inkscape:connector-curvature="0"
           id="path3736"
           style="fill:#ffffff;fill-opacity:1;fill-rule:nonzero;stroke:none"
           d="m 0,0 c 0,-3.496 -2.836,-6.332 -6.334,-6.332 -3.498,0 -6.333,2.836 -6.333,6.332 0,3.498 2.835,6.334 6.333,6.334 C -2.836,6.334 0,3.498 0,0" /></g><g
         transform="translate(228.2354,124.5215)"
         id="g3738"
         style="fill:#ffffff;fill-opacity:1"><path
           inkscape:connector-curvature="0"
           id="path3740"
           style="fill:#ffffff;fill-opacity:1;fill-rule:nonzero;stroke:none"
           d="m 0,0 c 0,-2.101 -1.706,-3.806 -3.809,-3.806 -2.103,0 -3.808,1.705 -3.808,3.806 0,2.101 1.705,3.805 3.808,3.805 C -1.706,3.805 0,2.101 0,0" /></g><g
         transform="translate(278.2354,156.7061)"
         id="g3742"
         style="fill:#ffffff;fill-opacity:1"><path
           inkscape:connector-curvature="0"
           id="path3744"
           style="fill:#ffffff;fill-opacity:1;fill-rule:nonzero;stroke:none"
           d="m 0,0 c 0,-2.104 -1.706,-3.809 -3.809,-3.809 -2.103,0 -3.808,1.705 -3.808,3.809 0,2.103 1.705,3.809 3.808,3.809 C -1.706,3.809 0,2.103 0,0" /></g><g
         transform="translate(239.9023,164.7754)"
         id="g3746"
         style="fill:#ffffff;fill-opacity:1"><path
           inkscape:connector-curvature="0"
           id="path3748"
           style="fill:#ffffff;fill-opacity:1;fill-rule:nonzero;stroke:none"
           d="m 0,0 c 0,-2.103 -1.707,-3.808 -3.809,-3.808 -2.104,0 -3.809,1.705 -3.809,3.808 0,2.104 1.705,3.809 3.809,3.809 C -1.707,3.809 0,2.104 0,0" /></g><g
         transform="translate(238.5674,111.8584)"
         id="g3750"
         style="fill:#ffffff;fill-opacity:1"><path
           inkscape:connector-curvature="0"
           id="path3752"
           style="fill:#ffffff;fill-opacity:1;fill-rule:nonzero;stroke:none"
           d="m 0,0 c 0,-2.104 -1.705,-3.809 -3.809,-3.809 -2.103,0 -3.807,1.705 -3.807,3.809 0,2.104 1.704,3.809 3.807,3.809 C -1.705,3.809 0,2.104 0,0" /></g><g
         transform="translate(319.5498,159.0034)"
         id="g3754"
         style="fill:#ffffff;fill-opacity:1"><path
           inkscape:connector-curvature="0"
           id="path3756"
           style="fill:#ffffff;fill-opacity:1;fill-rule:nonzero;stroke:none"
           d="m 0,0 c 0,-2.104 -1.706,-3.809 -3.809,-3.809 -2.103,0 -3.807,1.705 -3.807,3.809 0,2.104 1.704,3.809 3.807,3.809 C -1.706,3.809 0,2.104 0,0" /></g><g
         transform="translate(265.0596,144.313)"
         id="g3758"
         style="fill:#ffffff;fill-opacity:1"><path
           inkscape:connector-curvature="0"
           id="path3760"
           style="fill:#ffffff;fill-opacity:1;fill-rule:nonzero;stroke:none"
           d="m 0,0 c 0,-2.103 -1.707,-3.808 -3.809,-3.808 -2.103,0 -3.808,1.705 -3.808,3.808 0,2.104 1.705,3.809 3.808,3.809 C -1.707,3.809 0,2.104 0,0" /></g><g
         transform="translate(220.2705,138.8965)"
         id="g3762"
         style="fill:#ffffff;fill-opacity:1"><path
           inkscape:connector-curvature="0"
           id="path3764"
           style="fill:#ffffff;fill-opacity:1;fill-rule:nonzero;stroke:none"
           d="m 0,0 c 0,-2.103 -1.707,-3.808 -3.809,-3.808 -2.103,0 -3.808,1.705 -3.808,3.808 0,2.104 1.705,3.809 3.808,3.809 C -1.707,3.809 0,2.104 0,0" /></g><g
         transform="translate(281.3672,167.6523)"
         id="g3766"
         style="fill:#ffffff;fill-opacity:1"><path
           inkscape:connector-curvature="0"
           id="path3768"
           style="fill:#ffffff;fill-opacity:1;fill-rule:nonzero;stroke:none"
           d="m 0,0 c 0,-2.103 -1.706,-3.808 -3.809,-3.808 -2.103,0 -3.807,1.705 -3.807,3.808 0,2.104 1.704,3.809 3.807,3.809 C -1.706,3.809 0,2.104 0,0" /></g><g
         transform="translate(252.2354,146.7056)"
         id="g3774"
         style="fill:#ffffff;fill-opacity:1"><path
           inkscape:connector-curvature="0"
           id="path3776"
           style="fill:#ffffff;fill-opacity:1;fill-rule:nonzero;stroke:none"
           d="m 0,0 c 0,-2.103 -1.706,-3.808 -3.809,-3.808 -2.103,0 -3.808,1.705 -3.808,3.808 0,2.104 1.705,3.809 3.808,3.809 C -1.706,3.809 0,2.104 0,0" /></g><g
         transform="translate(311.2354,153.7056)"
         id="g3778"
         style="fill:#ffffff;fill-opacity:1"><path
           inkscape:connector-curvature="0"
           id="path3780"
           style="fill:#ffffff;fill-opacity:1;fill-rule:nonzero;stroke:none"
           d="m 0,0 c 0,-2.103 -1.706,-3.808 -3.809,-3.808 -2.103,0 -3.808,1.705 -3.808,3.808 0,2.104 1.705,3.809 3.808,3.809 C -1.706,3.809 0,2.104 0,0" /></g><g
         transform="translate(237.958,151.3179)"
         id="g3782"
         style="fill:#ffffff;fill-opacity:1"><path
           inkscape:connector-curvature="0"
           id="path3784"
           style="fill:#ffffff;fill-opacity:1;fill-rule:nonzero;stroke:none"
           d="m 0,0 c 0,-5.858 -4.752,-10.612 -10.614,-10.612 -5.858,0 -10.609,4.754 -10.609,10.612 0,5.863 4.751,10.616 10.609,10.616 C -4.752,10.616 0,5.863 0,0" /></g><g
         transform="translate(180.4268,145.812)"
         id="g3786"
         style="fill:#ffffff;fill-opacity:1"><path
           inkscape:connector-curvature="0"
           id="path3788"
           style="fill:#ffffff;fill-opacity:1;fill-rule:nonzero;stroke:none"
           d="m 0,0 c 0,-3.497 -2.835,-6.333 -6.333,-6.333 -3.498,0 -6.333,2.836 -6.333,6.333 0,3.498 2.835,6.334 6.333,6.334 C -2.835,6.334 0,3.498 0,0" /></g><g
         transform="translate(219.0283,174.7998)"
         id="g3790"
         style="fill:#ffffff;fill-opacity:1"><path
           inkscape:connector-curvature="0"
           id="path3792"
           style="fill:#ffffff;fill-opacity:1;fill-rule:nonzero;stroke:none"
           d="m 0,0 c 0,-7.729 -6.268,-13.996 -14,-13.996 -7.732,0 -14.002,6.267 -14.002,13.996 0,7.734 6.27,14.003 14.002,14.003 C -6.268,14.003 0,7.734 0,0" /></g><g
         transform="translate(163.0937,180.9414)"
         id="g3794"
         style="fill:#ffffff;fill-opacity:1"><path
           inkscape:connector-curvature="0"
           id="path3796"
           style="fill:#ffffff;fill-opacity:1;fill-rule:nonzero;stroke:none"
           d="m 0,0 c 0,-7.729 -6.267,-13.996 -14,-13.996 -7.732,0 -14.001,6.267 -14.001,13.996 0,7.734 6.269,14.003 14.001,14.003 C -6.267,14.003 0,7.734 0,0" /></g><g
         transform="translate(219.7939,213.999)"
         id="g3798"
         style="fill:#ffffff;fill-opacity:1"><path
           inkscape:connector-curvature="0"
           id="path3800"
           style="fill:#ffffff;fill-opacity:1;fill-rule:nonzero;stroke:none"
           d="m 0,0 c 0,-7.729 -6.267,-13.996 -14,-13.996 -7.732,0 -14.001,6.267 -14.001,13.996 0,7.734 6.269,14.003 14.001,14.003 C -6.267,14.003 0,7.734 0,0" /></g><g
         transform="translate(247.3955,222.7163)"
         id="g3802"
         style="fill:#ffffff;fill-opacity:1"><path
           inkscape:connector-curvature="0"
           id="path3804"
           style="fill:#ffffff;fill-opacity:1;fill-rule:nonzero;stroke:none"
           d="m 0,0 c 0,-5.859 -4.752,-10.611 -10.613,-10.611 -5.862,0 -10.614,4.752 -10.614,10.611 0,5.863 4.752,10.615 10.614,10.615 C -4.752,10.615 0,5.863 0,0" /></g><g
         transform="translate(181.041,164.7744)"
         id="g3806"
         style="fill:#ffffff;fill-opacity:1"><path
           inkscape:connector-curvature="0"
           id="path3808"
           style="fill:#ffffff;fill-opacity:1;fill-rule:nonzero;stroke:none"
           d="m 0,0 c 0,-5.859 -4.752,-10.611 -10.614,-10.611 -5.862,0 -10.614,4.752 -10.614,10.611 0,5.863 4.752,10.615 10.614,10.615 C -4.752,10.615 0,5.863 0,0" /></g><g
         transform="translate(176.708,207.5557)"
         id="g3810"
         style="fill:#ffffff;fill-opacity:1"><path
           inkscape:connector-curvature="0"
           id="path3812"
           style="fill:#ffffff;fill-opacity:1;fill-rule:nonzero;stroke:none"
           d="m 0,0 c 0,-5.859 -4.752,-10.611 -10.615,-10.611 -5.862,0 -10.614,4.752 -10.614,10.611 0,5.863 4.752,10.615 10.614,10.615 C -4.752,10.615 0,5.863 0,0" /></g><g
         transform="translate(157.4795,150.1606)"
         id="g3814"
         style="fill:#ffffff;fill-opacity:1"><path
           inkscape:connector-curvature="0"
           id="path3816"
           style="fill:#ffffff;fill-opacity:1;fill-rule:nonzero;stroke:none"
           d="m 0,0 c 0,-5.859 -4.752,-10.611 -10.613,-10.611 -5.862,0 -10.614,4.752 -10.614,10.611 0,5.863 4.752,10.615 10.614,10.615 C -4.752,10.615 0,5.863 0,0" /></g><g
         transform="translate(182.041,185.3882)"
         id="g3818"
         style="fill:#ffffff;fill-opacity:1"><path
           inkscape:connector-curvature="0"
           id="path3820"
           style="fill:#ffffff;fill-opacity:1;fill-rule:nonzero;stroke:none"
           d="m 0,0 c 0,-3.496 -2.835,-6.332 -6.333,-6.332 -3.498,0 -6.334,2.836 -6.334,6.332 0,3.499 2.836,6.334 6.334,6.334 C -2.835,6.334 0,3.499 0,0" /></g><g
         transform="translate(194.584,157.9946)"
         id="g3822"
         style="fill:#ffffff;fill-opacity:1"><path
           inkscape:connector-curvature="0"
           id="path3824"
           style="fill:#ffffff;fill-opacity:1;fill-rule:nonzero;stroke:none"
           d="m 0,0 c 0,-3.496 -2.835,-6.332 -6.333,-6.332 -3.498,0 -6.333,2.836 -6.333,6.332 0,3.499 2.835,6.334 6.333,6.334 C -2.835,6.334 0,3.499 0,0" /></g><g
         transform="translate(191.041,222.7173)"
         id="g3826"
         style="fill:#ffffff;fill-opacity:1"><path
           inkscape:connector-curvature="0"
           id="path3828"
           style="fill:#ffffff;fill-opacity:1;fill-rule:nonzero;stroke:none"
           d="m 0,0 c 0,-3.496 -2.835,-6.332 -6.333,-6.332 -3.498,0 -6.334,2.836 -6.334,6.332 0,3.499 2.836,6.334 6.334,6.334 C -2.835,6.334 0,3.499 0,0" /></g><g
         transform="translate(204.1084,193.9229)"
         id="g3830"
         style="fill:#ffffff;fill-opacity:1"><path
           inkscape:connector-curvature="0"
           id="path3832"
           style="fill:#ffffff;fill-opacity:1;fill-rule:nonzero;stroke:none"
           d="m 0,0 c 0,-2.103 -1.706,-3.808 -3.809,-3.808 -2.103,0 -3.808,1.705 -3.808,3.808 0,2.104 1.705,3.809 3.808,3.809 C -1.706,3.809 0,2.104 0,0" /></g><g
         transform="translate(223.834,235.9478)"
         id="g3834"
         style="fill:#ffffff;fill-opacity:1"><path
           inkscape:connector-curvature="0"
           id="path3836"
           style="fill:#ffffff;fill-opacity:1;fill-rule:nonzero;stroke:none"
           d="m 0,0 c 0,-2.103 -1.706,-3.808 -3.809,-3.808 -2.103,0 -3.807,1.705 -3.807,3.808 0,2.104 1.704,3.809 3.807,3.809 C -1.706,3.809 0,2.104 0,0" /></g><g
         transform="translate(255.8447,236.6113)"
         id="g3838"
         style="fill:#ffffff;fill-opacity:1"><path
           inkscape:connector-curvature="0"
           id="path3840"
           style="fill:#ffffff;fill-opacity:1;fill-rule:nonzero;stroke:none"
           d="m 0,0 c 0,-2.103 -1.706,-3.808 -3.809,-3.808 -2.103,0 -3.808,1.705 -3.808,3.808 0,2.104 1.705,3.809 3.808,3.809 C -1.706,3.809 0,2.104 0,0" /></g><g
         transform="translate(155.9014,131.3208)"
         id="g3842"
         style="fill:#ffffff;fill-opacity:1"><path
           inkscape:connector-curvature="0"
           id="path3844"
           style="fill:#ffffff;fill-opacity:1;fill-rule:nonzero;stroke:none"
           d="m 0,0 c 0,-2.099 -1.705,-3.801 -3.809,-3.801 -2.103,0 -3.807,1.702 -3.807,3.801 0,2.102 1.704,3.807 3.807,3.807 C -1.705,3.807 0,2.102 0,0" /></g><g
         transform="translate(186.377,128.5161)"
         id="g3846"
         style="fill:#ffffff;fill-opacity:1"><path
           inkscape:connector-curvature="0"
           id="path3848"
           style="fill:#ffffff;fill-opacity:1;fill-rule:nonzero;stroke:none"
           d="m 0,0 c 0,-2.099 -1.706,-3.801 -3.809,-3.801 -2.103,0 -3.807,1.702 -3.807,3.801 0,2.101 1.704,3.805 3.807,3.805 C -1.706,3.805 0,2.101 0,0" /></g><g
         transform="translate(233.0928,205.7705)"
         id="g3850"
         style="fill:#ffffff;fill-opacity:1"><path
           inkscape:connector-curvature="0"
           id="path3852"
           style="fill:#ffffff;fill-opacity:1;fill-rule:nonzero;stroke:none"
           d="m 0,0 c 0,-3.496 -2.835,-6.332 -6.333,-6.332 -3.498,0 -6.333,2.836 -6.333,6.332 0,3.499 2.835,6.334 6.333,6.334 C -2.835,6.334 0,3.499 0,0" /></g><g
         transform="translate(196.6279,145.7632)"
         id="g3854"
         style="fill:#ffffff;fill-opacity:1"><path
           inkscape:connector-curvature="0"
           id="path3856"
           style="fill:#ffffff;fill-opacity:1;fill-rule:nonzero;stroke:none"
           d="m 0,0 c 0,-2.103 -1.707,-3.808 -3.809,-3.808 -2.103,0 -3.808,1.705 -3.808,3.808 0,2.104 1.705,3.809 3.808,3.809 C -1.707,3.809 0,2.104 0,0" /></g><g
         transform="translate(192.041,203.7705)"
         id="g3858"
         style="fill:#ffffff;fill-opacity:1"><path
           inkscape:connector-curvature="0"
           id="path3860"
           style="fill:#ffffff;fill-opacity:1;fill-rule:nonzero;stroke:none"
           d="m 0,0 c 0,-3.496 -2.835,-6.332 -6.333,-6.332 -3.498,0 -6.334,2.836 -6.334,6.332 0,3.499 2.836,6.334 6.334,6.334 C -2.835,6.334 0,3.499 0,0" /></g><g
         transform="translate(172.4272,131.3208)"
         id="g3862"
         style="fill:#ffffff;fill-opacity:1"><path
           inkscape:connector-curvature="0"
           id="path3864"
           style="fill:#ffffff;fill-opacity:1;fill-rule:nonzero;stroke:none"
           d="m 0,0 c 0,-3.491 -2.835,-6.323 -6.333,-6.323 -3.498,0 -6.334,2.832 -6.334,6.323 0,3.496 2.836,6.332 6.334,6.332 C -2.835,6.332 0,3.496 0,0" /></g><g
         transform="translate(327.8945,176.7759)"
         id="g3866"
         style="fill:#ffffff;fill-opacity:1"><path
           inkscape:connector-curvature="0"
           id="path3868"
           style="fill:#ffffff;fill-opacity:1;fill-rule:nonzero;stroke:none"
           d="m 0,0 c 0,-3.496 -2.836,-6.332 -6.334,-6.332 -3.497,0 -6.333,2.836 -6.333,6.332 0,3.499 2.836,6.334 6.333,6.334 C -2.836,6.334 0,3.499 0,0" /></g><g
         transform="translate(328.3701,134.2197)"
         id="g3870"
         style="fill:#ffffff;fill-opacity:1"><path
           inkscape:connector-curvature="0"
           id="path3872"
           style="fill:#ffffff;fill-opacity:1;fill-rule:nonzero;stroke:none"
           d="m 0,0 c 0,-2.101 -1.707,-3.804 -3.809,-3.804 -2.103,0 -3.808,1.703 -3.808,3.804 0,2.104 1.705,3.809 3.808,3.809 C -1.707,3.809 0,2.104 0,0" /></g><g
         transform="translate(313.3701,134.3184)"
         id="g3874"
         style="fill:#ffffff;fill-opacity:1"><path
           inkscape:connector-curvature="0"
           id="path3876"
           style="fill:#ffffff;fill-opacity:1;fill-rule:nonzero;stroke:none"
           d="m 0,0 c 0,-2.1 -1.706,-3.803 -3.809,-3.803 -2.103,0 -3.808,1.703 -3.808,3.803 0,2.104 1.705,3.809 3.808,3.809 C -1.706,3.809 0,2.104 0,0" /></g><g
         transform="translate(354.3691,155.9951)"
         id="g3878"
         style="fill:#ffffff;fill-opacity:1"><path
           inkscape:connector-curvature="0"
           id="path3880"
           style="fill:#ffffff;fill-opacity:1;fill-rule:nonzero;stroke:none"
           d="m 0,0 c 0,-2.103 -1.706,-3.808 -3.809,-3.808 -2.103,0 -3.807,1.705 -3.807,3.808 0,2.104 1.704,3.809 3.807,3.809 C -1.706,3.809 0,2.104 0,0" /></g><g
         transform="translate(341.9834,185.561)"
         id="g3882"
         style="fill:#ffffff;fill-opacity:1"><path
           inkscape:connector-curvature="0"
           id="path3884"
           style="fill:#ffffff;fill-opacity:1;fill-rule:nonzero;stroke:none"
           d="m 0,0 c 0,-2.103 -1.707,-3.808 -3.809,-3.808 -2.103,0 -3.808,1.705 -3.808,3.808 0,2.104 1.705,3.809 3.808,3.809 C -1.707,3.809 0,2.104 0,0" /></g><g
         transform="translate(349.3154,141.6274)"
         id="g3886"
         style="fill:#ffffff;fill-opacity:1"><path
           inkscape:connector-curvature="0"
           id="path3888"
           style="fill:#ffffff;fill-opacity:1;fill-rule:nonzero;stroke:none"
           d="m 0,0 c 0,-3.496 -2.834,-6.332 -6.332,-6.332 -3.498,0 -6.334,2.836 -6.334,6.332 0,3.499 2.836,6.334 6.334,6.334 C -2.834,6.334 0,3.499 0,0" /></g><g
         transform="translate(350.1221,169.8418)"
         id="g3890"
         style="fill:#ffffff;fill-opacity:1"><path
           inkscape:connector-curvature="0"
           id="path3892"
           style="fill:#ffffff;fill-opacity:1;fill-rule:nonzero;stroke:none"
           d="m 0,0 c 0,-5.859 -4.752,-10.611 -10.614,-10.611 -5.862,0 -10.614,4.752 -10.614,10.611 0,5.863 4.752,10.615 10.614,10.615 C -4.752,10.615 0,5.863 0,0" /></g><g
         transform="translate(334.8945,148.9609)"
         id="g3894"
         style="fill:#ffffff;fill-opacity:1"><path
           inkscape:connector-curvature="0"
           id="path3896"
           style="fill:#ffffff;fill-opacity:1;fill-rule:nonzero;stroke:none"
           d="m 0,0 c 0,-3.496 -2.835,-6.332 -6.333,-6.332 -3.498,0 -6.333,2.836 -6.333,6.332 0,3.499 2.835,6.334 6.333,6.334 C -2.835,6.334 0,3.499 0,0" /></g><g
         transform="translate(328.3691,162.8115)"
         id="g3898"
         style="fill:#ffffff;fill-opacity:1"><path
           inkscape:connector-curvature="0"
           id="path3900"
           style="fill:#ffffff;fill-opacity:1;fill-rule:nonzero;stroke:none"
           d="m 0,0 c 0,-2.103 -1.706,-3.808 -3.809,-3.808 -2.103,0 -3.807,1.705 -3.807,3.808 0,2.104 1.704,3.809 3.807,3.809 C -1.706,3.809 0,2.104 0,0" /></g><g
         transform="translate(319.5498,144.3193)"
         id="g3902"
         style="fill:#ffffff;fill-opacity:1"><path
           inkscape:connector-curvature="0"
           id="path3904"
           style="fill:#ffffff;fill-opacity:1;fill-rule:nonzero;stroke:none"
           d="m 0,0 c 0,-2.103 -1.706,-3.808 -3.809,-3.808 -2.103,0 -3.807,1.705 -3.807,3.808 0,2.104 1.704,3.809 3.807,3.809 C -1.706,3.809 0,2.104 0,0" /></g><g
         transform="translate(270.0937,203.9995)"
         id="g3906"
         style="fill:#ffffff;fill-opacity:1"><path
           inkscape:connector-curvature="0"
           id="path3908"
           style="fill:#ffffff;fill-opacity:1;fill-rule:nonzero;stroke:none"
           d="m 0,0 c 0,-7.729 -6.267,-13.996 -14,-13.996 -7.732,0 -14.001,6.267 -14.001,13.996 0,7.734 6.269,14.003 14.001,14.003 C -6.267,14.003 0,7.734 0,0" /></g><g
         transform="translate(306.5967,189)"
         id="g3910"
         style="fill:#ffffff;fill-opacity:1"><path
           inkscape:connector-curvature="0"
           id="path3912"
           style="fill:#ffffff;fill-opacity:1;fill-rule:nonzero;stroke:none"
           d="m 0,0 c 0,-7.729 -6.268,-13.996 -14,-13.996 -7.732,0 -14.002,6.267 -14.002,13.996 0,7.734 6.27,14.003 14.002,14.003 C -6.268,14.003 0,7.734 0,0" /></g><g
         transform="translate(246.707,184.3882)"
         id="g3914"
         style="fill:#ffffff;fill-opacity:1"><path
           inkscape:connector-curvature="0"
           id="path3916"
           style="fill:#ffffff;fill-opacity:1;fill-rule:nonzero;stroke:none"
           d="m 0,0 c 0,-5.859 -4.752,-10.611 -10.614,-10.611 -5.862,0 -10.614,4.752 -10.614,10.611 0,5.863 4.752,10.615 10.614,10.615 C -4.752,10.615 0,5.863 0,0" /></g><g
         transform="translate(293.1729,226.0005)"
         id="g3918"
         style="fill:#ffffff;fill-opacity:1"><path
           inkscape:connector-curvature="0"
           id="path3920"
           style="fill:#ffffff;fill-opacity:1;fill-rule:nonzero;stroke:none"
           d="m 0,0 c 0,-5.859 -4.752,-10.611 -10.614,-10.611 -5.862,0 -10.614,4.752 -10.614,10.611 0,5.863 4.752,10.615 10.614,10.615 C -4.752,10.615 0,5.863 0,0" /></g><g
         transform="translate(332.7881,195.3877)"
         id="g3922"
         style="fill:#ffffff;fill-opacity:1"><path
           inkscape:connector-curvature="0"
           id="path3924"
           style="fill:#ffffff;fill-opacity:1;fill-rule:nonzero;stroke:none"
           d="m 0,0 c 0,-5.859 -4.752,-10.611 -10.614,-10.611 -5.862,0 -10.614,4.752 -10.614,10.611 0,5.863 4.752,10.615 10.614,10.615 C -4.752,10.615 0,5.863 0,0" /></g><g
         transform="translate(274.4238,183.7744)"
         id="g3926"
         style="fill:#ffffff;fill-opacity:1"><path
           inkscape:connector-curvature="0"
           id="path3928"
           style="fill:#ffffff;fill-opacity:1;fill-rule:nonzero;stroke:none"
           d="m 0,0 c 0,-3.496 -2.835,-6.332 -6.333,-6.332 -3.498,0 -6.334,2.836 -6.334,6.332 0,3.499 2.836,6.334 6.334,6.334 C -2.835,6.334 0,3.499 0,0" /></g><g
         transform="translate(284.0801,207.1611)"
         id="g3930"
         style="fill:#ffffff;fill-opacity:1"><path
           inkscape:connector-curvature="0"
           id="path3932"
           style="fill:#ffffff;fill-opacity:1;fill-rule:nonzero;stroke:none"
           d="m 0,0 c 0,-3.496 -2.835,-6.332 -6.333,-6.332 -3.498,0 -6.333,2.836 -6.333,6.332 0,3.499 2.835,6.334 6.333,6.334 C -2.835,6.334 0,3.499 0,0" /></g><g
         transform="translate(312.9336,207.5562)"
         id="g3934"
         style="fill:#ffffff;fill-opacity:1"><path
           inkscape:connector-curvature="0"
           id="path3936"
           style="fill:#ffffff;fill-opacity:1;fill-rule:nonzero;stroke:none"
           d="m 0,0 c 0,-3.496 -2.835,-6.332 -6.333,-6.332 -3.498,0 -6.334,2.836 -6.334,6.332 0,3.499 2.836,6.334 6.334,6.334 C -2.835,6.334 0,3.499 0,0" /></g><g
         transform="translate(312.3691,172.9443)"
         id="g3938"
         style="fill:#ffffff;fill-opacity:1"><path
           inkscape:connector-curvature="0"
           id="path3940"
           style="fill:#ffffff;fill-opacity:1;fill-rule:nonzero;stroke:none"
           d="m 0,0 c 0,-2.103 -1.706,-3.808 -3.809,-3.808 -2.103,0 -3.807,1.705 -3.807,3.808 0,2.104 1.704,3.809 3.807,3.809 C -1.706,3.809 0,2.104 0,0" /></g><g
         transform="translate(306.7861,223.8062)"
         id="g3942"
         style="fill:#ffffff;fill-opacity:1"><path
           inkscape:connector-curvature="0"
           id="path3944"
           style="fill:#ffffff;fill-opacity:1;fill-rule:nonzero;stroke:none"
           d="m 0,0 c 0,-2.103 -1.706,-3.808 -3.809,-3.808 -2.103,0 -3.808,1.705 -3.808,3.808 0,2.104 1.705,3.809 3.808,3.809 C -1.706,3.809 0,2.104 0,0" /></g><g
         transform="translate(271.0937,234.9478)"
         id="g3946"
         style="fill:#ffffff;fill-opacity:1"><path
           inkscape:connector-curvature="0"
           id="path3948"
           style="fill:#ffffff;fill-opacity:1;fill-rule:nonzero;stroke:none"
           d="m 0,0 c 0,-2.103 -1.706,-3.808 -3.809,-3.808 -2.103,0 -3.807,1.705 -3.807,3.808 0,2.104 1.704,3.809 3.807,3.809 C -1.706,3.809 0,2.104 0,0" /></g><g
         transform="translate(268.8672,222.7178)"
         id="g3950"
         style="fill:#ffffff;fill-opacity:1"><path
           inkscape:connector-curvature="0"
           id="path3952"
           style="fill:#ffffff;fill-opacity:1;fill-rule:nonzero;stroke:none"
           d="m 0,0 c 0,-2.103 -1.706,-3.808 -3.809,-3.808 -2.103,0 -3.807,1.705 -3.807,3.808 0,2.104 1.704,3.809 3.807,3.809 C -1.706,3.809 0,2.104 0,0" /></g></g></g></svg>